<?xml version="1.0" encoding="utf-8"?>
<!-- Generator: Adobe Illustrator 16.0.0, SVG Export Plug-In . SVG Version: 6.00 Build 0)  -->
<!DOCTYPE svg PUBLIC "-//W3C//DTD SVG 1.1//EN" "http://www.w3.org/Graphics/SVG/1.1/DTD/svg11.dtd">
<svg version="1.1" id="Ebene_1" xmlns="http://www.w3.org/2000/svg" xmlns:xlink="http://www.w3.org/1999/xlink" x="0px" y="0px"
	 width="312.604px" height="309.418px" viewBox="0 0 312.604 309.418" enable-background="new 0 0 312.604 309.418"
	 xml:space="preserve">
<g>
	<g>
		<path fill-rule="evenodd" clip-rule="evenodd" fill="#FFFFFF" d="M22.842,23.736C10.575,42.644,9.298,91.394,9.298,98.577
			c0,11.676,0,54.811,0,62.881c0,4.184,0.079,89.981,0.51,97.46c2.075,35.538,21.504,34.717,51.105,35.772
			c75.891,2.689,106.649,6.894,180.919,6.894c45.939,0,70.772-0.763,70.772-55.951c0-16.047-2.299-133.464-2.299-144.66
			c0-22.871,2.299-73.979-8.179-76.043C290.439,22.634,43.443-8.031,22.842,23.736z"/>
		<path fill-rule="evenodd" clip-rule="evenodd" fill="#FAFAFA" d="M24.202,25.091C12.01,43.432,10.209,90.675,10.209,98.419
			c0,11.405-0.019,55.409-0.019,63.428c0,4.193,0.081,89.959,0.491,97.342c1.977,34.248,20.562,33.609,49.245,34.616
			c75.81,2.58,108.26,6.64,182.529,6.58c45.274-0.025,69.058-0.863,69.058-54.327c0-15.892-2.18-132.755-2.218-143.912
			c-0.084-22.867,2.207-73.474-8.607-76.147C288.381,22.956,44.521-5.478,24.202,25.091z"/>
		<path fill-rule="evenodd" clip-rule="evenodd" fill="#F5F5F5" d="M25.562,26.446C13.442,44.219,11.12,89.957,11.12,98.261
			c0,11.134-0.038,56.007-0.038,63.973c0,4.203,0.082,89.938,0.472,97.225c1.877,32.957,19.62,32.503,47.385,33.461
			c75.729,2.47,109.87,6.385,184.138,6.267c44.61-0.052,67.343-0.965,67.343-52.705c0-15.735-2.059-132.045-2.137-143.163
			c-0.166-22.864,2.115-72.978-9.034-76.251C286.32,23.271,45.593-2.927,25.562,26.446z"/>
		<path fill-rule="evenodd" clip-rule="evenodd" fill="#F0F0F0" d="M26.922,27.801c-12.05,17.204-14.89,61.438-14.89,70.303
			c0,10.863-0.058,56.605-0.058,64.52c0,4.212,0.066,89.917,0.453,97.106c1.703,31.672,18.678,31.395,45.524,32.306
			c75.649,2.359,111.48,6.13,185.748,5.952c43.946-0.077,65.629-1.065,65.629-51.081c0-15.579-1.94-131.336-2.056-142.415
			c-0.25-22.86,2.022-72.491-9.462-76.356C284.26,23.573,46.659-0.377,26.922,27.801z"/>
		<path fill-rule="evenodd" clip-rule="evenodd" fill="#EBEBEB" d="M28.281,29.156C16.298,45.791,12.943,88.52,12.943,97.946
			c0,10.592-0.077,57.203-0.077,65.064c0,4.223,0.064,89.896,0.435,96.989c1.587,30.382,17.735,30.288,43.664,31.149
			c75.568,2.25,113.09,5.876,187.356,5.639c43.283-0.103,63.914-1.165,63.914-49.458c0-15.423-1.82-130.626-1.975-141.666
			c-0.333-22.857,1.931-72.011-9.889-76.46C282.198,23.869,47.72,2.17,28.281,29.156z"/>
		<path fill-rule="evenodd" clip-rule="evenodd" fill="#E6E6E6" d="M29.642,30.511c-11.918,16.066-15.787,57.29-15.787,67.277
			c0,10.321-0.096,57.802-0.096,65.611c0,4.231,0.062,89.873,0.416,96.871c1.473,29.093,16.792,29.232,41.804,29.994
			c75.483,2.299,114.7,5.621,188.967,5.324c42.618-0.128,62.199-1.266,62.199-47.834c0-15.268-1.7-129.917-1.894-140.918
			c-0.417-22.854,1.841-71.539-10.317-76.565C280.14,24.157,48.777,4.717,29.642,30.511z"/>
		<path fill-rule="evenodd" clip-rule="evenodd" fill="#E1E1E1" d="M31.001,31.866C19.145,47.362,14.766,87.083,14.766,97.631
			c0,10.05-0.115,58.399-0.115,66.157c0,4.241,0.059,89.851,0.396,96.752c1.361,27.803,15.85,28.133,39.943,28.84
			c75.402,2.213,116.311,5.366,190.576,5.011c41.954-0.155,60.484-1.367,60.484-46.212c0-15.111-1.58-129.207-1.812-140.169
			c-0.5-22.851,1.752-71.072-10.745-76.669C278.083,24.438,49.828,7.261,31.001,31.866z"/>
		<path fill-rule="evenodd" clip-rule="evenodd" fill="#DCDCDC" d="M32.361,33.221C20.563,48.146,15.677,86.364,15.677,97.474
			c0,9.778-0.135,58.997-0.135,66.702c0,4.251,0.057,89.83,0.378,96.635c1.251,26.514,14.907,27.03,38.083,27.684
			c75.322,2.125,117.92,5.112,192.187,4.697c41.289-0.181,58.769-1.468,58.769-44.589c0-14.955-1.46-128.497-1.73-139.42
			c-0.584-22.848,1.666-70.61-11.172-76.773C276.027,24.714,50.872,9.803,32.361,33.221z"/>
		<path fill-rule="evenodd" clip-rule="evenodd" fill="#D7D7D7" d="M33.722,34.575C21.978,48.93,16.588,85.646,16.588,97.316
			c0,9.507-0.154,59.595-0.154,67.248c0,4.262,0.055,89.81,0.359,96.518c1.145,25.224,13.965,25.926,36.223,26.528
			c75.24,2.035,119.53,4.857,193.795,4.384c40.625-0.207,57.055-1.569,57.055-42.966c0-14.799-1.341-127.788-1.65-138.672
			c-0.666-22.844,1.582-70.151-11.6-76.878C273.977,24.986,51.911,12.342,33.722,34.575z"/>
		<path fill-rule="evenodd" clip-rule="evenodd" fill="#D2D2D2" d="M35.081,35.931C23.389,49.711,17.5,84.927,17.5,97.158
			c0,9.237-0.173,60.192-0.173,67.794c0,4.271,0.053,89.787,0.34,96.399c1.038,23.934,13.023,24.821,34.362,25.372
			c75.16,1.94,121.141,4.604,195.404,4.07c39.961-0.232,55.34-1.669,55.34-41.342c0-14.644-1.221-127.079-1.568-137.924
			c-0.75-22.841,1.498-69.696-12.027-76.982C271.927,25.252,52.942,14.878,35.081,35.931z"/>
		<path fill-rule="evenodd" clip-rule="evenodd" fill="#CDCDCD" d="M36.441,37.285C24.796,50.492,18.411,84.208,18.411,97
			c0,8.965-0.192,60.792-0.192,68.34c0,4.28,0.052,89.765,0.321,96.281c0.936,22.644,12.081,23.715,32.502,24.217
			c75.079,1.847,122.75,4.349,197.015,3.756c39.296-0.258,53.625-1.77,53.625-39.719c0-14.487-1.101-126.369-1.487-137.175
			c-0.834-22.837,1.418-69.243-12.455-77.087C269.879,25.516,53.966,17.409,36.441,37.285z"/>
		<path fill-rule="evenodd" clip-rule="evenodd" fill="#C9C9C9" d="M37.801,38.641C26.199,51.269,19.322,83.49,19.322,96.843
			c0,8.694-0.211,61.389-0.211,68.886c0,4.29,0.051,89.743,0.302,96.164c0.835,21.354,11.139,22.607,30.642,23.062
			c74.999,1.747,124.36,4.094,198.624,3.442c38.633-0.284,51.91-1.871,51.91-38.096c0-14.332-0.98-125.66-1.406-136.427
			c-0.916-22.834,1.339-68.792-12.883-77.191C267.834,25.777,54.984,19.937,37.801,38.641z"/>
		<path fill-rule="evenodd" clip-rule="evenodd" fill="#C4C4C4" d="M39.161,39.995c-11.564,12.048-18.928,42.776-18.928,56.69
			c0,8.424-0.23,61.987-0.23,69.432c0,4.3,0.051,89.722,0.283,96.046c0.738,20.062,10.198,21.498,28.781,21.906
			c74.919,1.644,125.971,3.839,200.234,3.128c37.968-0.31,50.195-1.972,50.195-36.473c0-14.175-0.861-124.95-1.325-135.678
			c-1-22.831,1.262-68.342-13.311-77.295C265.792,26.035,55.993,22.459,39.161,39.995z"/>
		<path fill-rule="evenodd" clip-rule="evenodd" fill="#BFBFBF" d="M40.521,41.351C28.991,52.813,21.145,82.053,21.145,96.527
			c0,8.153-0.249,62.585-0.249,69.978c0,4.31,0.051,89.7,0.264,95.929c0.643,18.771,9.256,20.388,26.921,20.75
			c74.838,1.534,127.581,3.585,201.843,2.814c37.304-0.335,48.48-2.072,48.48-34.849c0-14.02-0.741-124.241-1.243-134.93
			c-1.084-22.828,1.184-67.896-13.738-77.399C263.751,26.292,56.995,24.975,40.521,41.351z"/>
		<path fill-rule="evenodd" clip-rule="evenodd" fill="#BABABA" d="M41.881,42.705C30.377,53.579,22.056,81.334,22.056,96.37
			c0,7.882-0.269,63.184-0.269,70.523c0,4.319,0.053,89.677,0.246,95.811c0.55,17.48,8.313,19.276,25.061,19.595
			c74.758,1.421,129.19,3.33,203.452,2.501c36.64-0.361,46.766-2.174,46.766-33.227c0-13.863-0.621-123.531-1.162-134.18
			c-1.167-22.825,1.111-67.449-14.166-77.504C261.712,26.545,57.986,27.482,41.881,42.705z"/>
		<path fill-rule="evenodd" clip-rule="evenodd" fill="#B5B5B5" d="M43.241,44.06C31.758,54.338,22.967,80.616,22.967,96.212
			c0,7.611-0.288,63.781-0.288,71.07c0,4.328,0.055,89.654,0.227,95.691c0.461,16.189,7.372,18.164,23.2,18.439
			c74.678,1.299,130.801,3.076,205.062,2.188c35.975-0.387,45.051-2.273,45.051-31.603c0-13.708-0.502-122.822-1.081-133.433
			c-1.25-22.821,1.037-67.003-14.594-77.608C259.676,26.797,58.971,29.981,43.241,44.06z"/>
		<path fill-rule="evenodd" clip-rule="evenodd" fill="#B0B0B0" d="M44.601,45.415c-11.467,9.674-20.722,34.482-20.722,50.64
			c0,7.34-0.307,64.379-0.307,71.615c0,4.339,0.058,89.633,0.208,95.575c0.375,14.898,6.43,17.049,21.34,17.283
			c74.599,1.171,132.411,2.821,206.672,1.873c35.311-0.412,43.337-2.374,43.337-29.979c0-13.553-0.383-122.113-1.001-132.684
			c-1.333-22.818,0.965-66.56-15.021-77.713C257.641,27.049,59.947,32.47,44.601,45.415z"/>
		<path fill-rule="evenodd" clip-rule="evenodd" fill="#ABABAB" d="M45.961,46.77C34.501,55.831,24.79,79.179,24.79,95.897
			c0,7.068-0.326,64.977-0.326,72.161c0,4.348,0.063,89.61,0.189,95.456c0.293,13.608,5.488,15.935,19.479,16.128
			c74.519,1.032,134.021,2.567,208.281,1.561c34.646-0.438,41.622-2.476,41.622-28.356c0-13.396-0.263-121.403-0.919-131.935
			c-1.417-22.815,0.894-66.115-15.449-77.817C255.607,27.299,60.915,34.947,45.961,46.77z"/>
		<path fill-rule="evenodd" clip-rule="evenodd" fill="#A6A6A6" d="M47.321,48.125C35.863,56.56,25.701,78.46,25.701,95.74
			c0,6.798-0.346,65.575-0.346,72.707c0,4.357,0.071,89.589,0.171,95.34c0.214,12.316,4.545,14.817,17.619,14.972
			c74.438,0.881,135.631,2.312,209.891,1.246c33.981-0.464,39.907-2.576,39.907-26.732c0-13.24-0.144-120.694-0.839-131.187
			c-1.5-22.811,0.825-65.672-15.876-77.922C253.576,27.547,61.876,37.41,47.321,48.125z"/>
		<path fill-rule="evenodd" clip-rule="evenodd" fill="#A1A1A1" d="M48.68,49.479c-11.462,7.795-22.067,28.262-22.067,46.103
			c0,6.526-0.365,66.173-0.365,73.253c0,4.367,0.081,89.566,0.152,95.221c0.139,11.025,3.604,13.681,15.759,13.817
			c74.36,0.601,137.241,2.058,211.5,0.932c33.318-0.489,38.192-2.676,38.192-25.109c0-13.085-0.022-119.984-0.757-130.438
			c-1.583-22.808,0.756-65.229-16.304-78.026C251.546,27.794,62.83,39.856,48.68,49.479z"/>
		<path fill-rule="evenodd" clip-rule="evenodd" fill="#9C9C9C" d="M50.041,50.834c-11.474,7.139-22.517,26.188-22.517,44.59
			c0,6.256-0.384,66.771-0.384,73.799c0,4.377,0.094,89.544,0.133,95.103c0.067,9.734,2.662,12.573,13.898,12.661
			c74.28,0.491,138.852,1.804,213.11,0.618c32.653-0.515,36.478-2.776,36.478-23.485c0-12.929,0.097-119.275-0.676-129.69
			c-1.667-22.805,0.704-64.809-16.732-78.13C249.54,28.012,63.781,42.286,50.041,50.834z"/>
		<path fill-rule="evenodd" clip-rule="evenodd" fill="#979797" d="M51.4,52.189c-11.493,6.455-22.965,24.115-22.965,43.077
			c0,5.985-0.403,67.369-0.403,74.345c0,4.387,0.114,89.522,0.114,94.985c0,8.444,1.72,11.466,12.038,11.506
			c74.199,0.381,140.461,1.549,214.719,0.305c31.989-0.541,34.763-2.878,34.763-21.863c0-12.772,0.217-118.565-0.595-128.941
			c-1.75-22.801,0.625-64.351-17.159-78.235C247.495,28.281,64.727,44.688,51.4,52.189z"/>
	</g>
	<g>
		<path fill-rule="evenodd" clip-rule="evenodd" fill="#FFFFFF" d="M287.688,260.949c2.05,40.062-4.278,47.144-43.837,49.709
			c-29.375,1.908-64.13-1.03-93.633-1.416c-30.432-0.375-65.13-0.251-94.924-0.251c-28.157,0-32.028-17.597-33.339-35.213
			c-1.41-18.95,36.559-35.094,45.09-38.887c9.199-4.076,54.684-19.934,80.241-19.934c37.812,0,83.302,12.782,98.621,16.873
			C256.799,234.729,286.909,245.633,287.688,260.949z"/>
		<path fill-rule="evenodd" clip-rule="evenodd" fill="#FAFAFA" d="M286.348,261.173c2.059,38.771-4.333,45.681-43.043,48.151
			c-29.389,1.855-63.57-0.928-93.08-1.287c-30.432-0.347-64.352-0.238-94.052-0.3c-27.819-0.047-31.602-17.042-32.838-34.433
			c-1.333-18.492,35.397-33.835,44.952-37.878c9.209-3.896,53.564-19.204,79-19.228c37.6-0.035,82.143,12.133,97.453,16.143
			C255.575,235.175,285.517,246.071,286.348,261.173z"/>
		<path fill-rule="evenodd" clip-rule="evenodd" fill="#F5F5F5" d="M285.007,261.396c2.145,37.476-4.388,44.22-42.249,46.596
			c-29.401,1.802-63.01-0.827-92.527-1.158c-30.432-0.319-63.575-0.228-93.179-0.351c-27.48-0.094-31.176-16.485-32.337-33.651
			c-1.257-18.034,34.232-32.578,44.813-36.869c9.21-3.735,52.445-18.474,77.759-18.521c37.387-0.07,80.983,11.482,96.285,15.412
			C254.351,235.621,284.155,246.507,285.007,261.396z"/>
		<path fill-rule="evenodd" clip-rule="evenodd" fill="#F0F0F0" d="M283.666,261.619c2.189,36.182-4.442,42.757-41.455,45.038
			c-29.414,1.749-62.45-0.726-91.974-1.029c-30.432-0.292-62.798-0.215-92.308-0.399c-27.142-0.141-30.75-15.931-31.836-32.871
			c-1.18-17.576,33.061-31.328,44.676-35.86c9.204-3.592,51.325-17.744,76.518-17.815c37.174-0.106,79.823,10.833,95.117,14.682
			C253.127,236.067,282.778,246.943,283.666,261.619z"/>
		<path fill-rule="evenodd" clip-rule="evenodd" fill="#EBEBEB" d="M282.325,261.843c2.229,34.889-4.496,41.294-40.662,43.481
			c-29.426,1.695-61.89-0.625-91.42-0.9c-30.433-0.265-62.02-0.203-91.435-0.449c-26.804-0.188-30.324-15.376-31.335-32.091
			c-1.104-17.118,31.885-30.086,44.537-34.851c9.189-3.461,50.206-17.015,75.276-17.109c36.961-0.142,78.664,10.182,93.949,13.95
			C251.902,236.514,281.401,247.38,282.325,261.843z"/>
		<path fill-rule="evenodd" clip-rule="evenodd" fill="#E6E6E6" d="M280.984,262.066c2.268,33.594-4.551,39.831-39.868,41.924
			c-29.439,1.642-61.33-0.522-90.867-0.771c-30.432-0.236-61.242-0.191-90.562-0.498c-26.466-0.235-29.856-14.822-30.833-31.311
			c-0.987-16.663,30.704-28.853,44.398-33.842c9.17-3.341,49.086-16.284,74.035-16.403c36.749-0.178,77.505,9.532,92.781,13.22
			C250.679,236.96,280.022,247.817,280.984,262.066z"/>
		<path fill-rule="evenodd" clip-rule="evenodd" fill="#E1E1E1" d="M279.644,262.289c2.303,32.302-4.602,38.439-39.074,40.368
			c-29.45,1.647-60.77-0.422-90.314-0.644c-30.432-0.208-60.465-0.179-89.691-0.548c-26.127-0.281-29.424-14.268-30.332-30.529
			c-0.904-16.205,29.52-27.628,44.26-32.833c9.148-3.23,47.966-15.554,72.794-15.697c36.536-0.213,76.345,8.882,91.614,12.489
			C249.454,237.406,278.644,248.254,279.644,262.289z"/>
		<path fill-rule="evenodd" clip-rule="evenodd" fill="#DCDCDC" d="M278.302,262.513c2.333,31.008-4.655,36.982-38.279,38.811
			c-29.461,1.602-60.21-0.319-89.761-0.514c-30.433-0.182-59.688-0.168-88.818-0.598c-25.789-0.328-28.993-13.713-29.831-29.749
			c-0.823-15.747,28.333-26.412,44.122-31.824c9.124-3.127,46.847-14.824,71.553-14.991c36.323-0.248,75.186,8.232,90.446,11.758
			C248.23,237.853,277.262,248.69,278.302,262.513z"/>
		<path fill-rule="evenodd" clip-rule="evenodd" fill="#D7D7D7" d="M276.962,262.735c2.358,29.715-4.71,35.526-37.486,37.255
			c-29.475,1.555-59.65-0.219-89.208-0.386c-30.433-0.153-58.91-0.155-87.946-0.646c-25.451-0.375-28.562-13.157-29.33-28.969
			c-0.743-15.288,27.141-25.206,43.984-30.815c9.097-3.029,45.728-14.095,70.312-14.285c36.11-0.284,74.026,7.583,89.278,11.028
			C247.007,238.299,275.882,249.126,276.962,262.735z"/>
		<path fill-rule="evenodd" clip-rule="evenodd" fill="#D2D2D2" d="M275.62,262.959c2.38,28.422-4.764,34.066-36.691,35.697
			c-29.488,1.506-59.09-0.117-88.655-0.257c-30.433-0.125-58.132-0.143-87.074-0.695c-25.112-0.422-28.131-12.603-28.828-28.188
			c-0.663-14.831,25.946-24.01,43.845-29.808c9.068-2.938,44.608-13.364,69.071-13.579c35.897-0.319,72.867,6.933,88.11,10.298
			C245.782,238.745,274.498,249.563,275.62,262.959z"/>
		<path fill-rule="evenodd" clip-rule="evenodd" fill="#CDCDCD" d="M274.28,263.183c2.398,27.128-4.819,32.606-35.898,34.141
			c-29.501,1.456-58.53-0.016-88.102-0.128c-30.433-0.099-57.355-0.132-86.202-0.745c-24.774-0.47-27.702-12.048-28.327-27.407
			C35.166,254.67,60.5,246.22,79.458,240.244c9.038-2.849,43.488-12.634,67.829-12.873c35.685-0.354,71.708,6.282,86.942,9.567
			C244.559,239.191,273.115,250,274.28,263.183z"/>
		<path fill-rule="evenodd" clip-rule="evenodd" fill="#C9C9C9" d="M272.938,263.405c2.411,25.837-4.873,31.145-35.104,32.584
			c-29.514,1.405-57.971,0.086-87.549,0.001c-30.434-0.07-56.578-0.119-85.33-0.795c-24.436-0.516-27.273-11.49-27.825-26.626
			c-0.508-13.914,23.548-21.647,43.568-27.79c9.007-2.764,42.369-11.904,66.588-12.166c35.472-0.391,70.548,5.632,85.774,8.835
			C243.334,239.638,271.729,250.437,272.938,263.405z"/>
		<path fill-rule="evenodd" clip-rule="evenodd" fill="#C4C4C4" d="M271.598,263.629c2.419,24.543-4.928,29.68-34.311,31.026
			c-29.526,1.354-57.41,0.188-86.995,0.131c-30.433-0.043-55.8-0.107-84.457-0.845c-24.098-0.563-26.847-10.936-27.325-25.847
			c-0.432-13.455,22.347-20.48,43.431-26.78c8.975-2.682,41.249-11.174,65.347-11.46c35.259-0.426,69.389,4.982,84.606,8.104
			C242.11,240.084,270.34,250.873,271.598,263.629z"/>
		<path fill-rule="evenodd" clip-rule="evenodd" fill="#BFBFBF" d="M270.257,263.853c2.422,23.251-4.981,28.215-33.517,29.47
			c-29.539,1.3-56.85,0.289-86.441,0.259c-30.434-0.016-55.023-0.096-83.586-0.894c-23.759-0.61-26.42-10.38-26.823-25.065
			c-0.356-12.998,21.141-19.322,43.292-25.771c8.943-2.604,40.13-10.445,64.106-10.755c35.046-0.462,68.229,4.332,83.438,7.374
			C240.886,240.53,268.95,251.31,270.257,263.853z"/>
		<path fill-rule="evenodd" clip-rule="evenodd" fill="#BABABA" d="M268.916,264.075c2.419,21.961-5.037,26.749-32.723,27.914
			c-29.553,1.244-56.29,0.391-85.889,0.387c-30.434,0.013-54.246-0.083-82.714-0.942c-23.421-0.657-25.997-9.824-26.322-24.285
			c-0.283-12.539,19.933-18.178,43.154-24.763c8.911-2.527,39.01-9.715,62.864-10.049c34.833-0.496,67.07,3.682,82.271,6.644
			C239.662,240.977,267.559,251.746,268.916,264.075z"/>
		<path fill-rule="evenodd" clip-rule="evenodd" fill="#B5B5B5" d="M267.575,264.299c2.411,20.669-5.092,25.279-31.929,26.356
			c-29.566,1.187-55.73,0.492-85.336,0.517c-30.434,0.04-53.468-0.071-81.841-0.993c-23.083-0.703-25.574-9.269-25.821-23.504
			c-0.21-12.081,18.723-17.044,43.016-23.754c8.878-2.452,37.89-8.984,61.623-9.343c34.62-0.532,65.91,3.032,81.103,5.913
			C238.438,241.423,266.162,252.185,267.575,264.299z"/>
		<path fill-rule="evenodd" clip-rule="evenodd" fill="#B0B0B0" d="M266.234,264.522c2.396,19.379-5.146,23.81-31.135,24.8
			c-29.579,1.127-55.171,0.593-84.783,0.645c-30.434,0.068-52.691-0.06-80.969-1.042c-22.744-0.751-25.152-8.714-25.32-22.724
			c-0.139-11.623,17.51-15.921,42.877-22.745c8.846-2.38,36.771-8.255,60.382-8.637c34.408-0.567,64.751,2.383,79.935,5.184
			C237.214,241.869,264.763,252.622,266.234,264.522z"/>
		<path fill-rule="evenodd" clip-rule="evenodd" fill="#ABABAB" d="M264.894,264.745c2.376,18.091-5.202,22.338-30.341,23.243
			c-29.593,1.065-54.61,0.694-84.229,0.774c-30.435,0.095-51.914-0.048-80.098-1.092c-22.405-0.798-24.732-8.158-24.818-21.943
			c-0.069-11.164,16.295-14.809,42.739-21.736c8.812-2.309,35.65-7.524,59.141-7.931c34.195-0.603,63.592,1.732,78.767,4.452
			C235.99,242.315,263.358,253.06,264.894,264.745z"/>
		<path fill-rule="evenodd" clip-rule="evenodd" fill="#A6A6A6" d="M263.553,264.969c2.35,16.802-5.259,20.822-29.547,21.686
			c-29.608,0.95-54.051,0.797-83.677,0.903c-30.435,0.123-51.136-0.036-79.225-1.141c-22.068-0.845-24.316-7.603-24.317-21.163
			c-0.001-10.706,15.078-13.707,42.6-20.728c8.78-2.239,34.532-6.795,57.9-7.224c33.981-0.639,62.433,1.082,77.6,3.721
			C234.766,242.762,261.949,253.5,263.553,264.969z"/>
		<path fill-rule="evenodd" clip-rule="evenodd" fill="#A1A1A1" d="M262.212,265.192c2.315,15.516-5.312,19.359-28.754,20.129
			c-29.62,0.896-53.49,0.897-83.123,1.031c-30.435,0.151-50.359-0.023-78.353-1.19c-21.729-0.892-23.901-7.047-23.815-20.382
			c0.065-10.248,13.858-12.619,42.461-19.719c8.747-2.171,33.412-6.064,56.659-6.518c33.77-0.675,61.272,0.432,76.432,2.99
			C233.542,243.208,260.533,253.94,262.212,265.192z"/>
		<path fill-rule="evenodd" clip-rule="evenodd" fill="#9C9C9C" d="M260.871,265.416c2.274,14.23-5.367,17.897-27.96,18.571
			c-29.634,0.843-52.93,1-82.57,1.16c-30.435,0.179-49.581-0.012-77.48-1.239c-21.391-0.938-23.505-6.491-23.315-19.602
			c0.12-9.79,12.638-11.543,42.324-18.71c8.715-2.104,32.292-5.335,55.417-5.812c33.557-0.71,60.113-0.218,75.264,2.26
			C232.318,243.654,259.107,254.383,260.871,265.416z"/>
		<path fill-rule="evenodd" clip-rule="evenodd" fill="#979797" d="M259.53,265.639c2.223,12.949-5.422,16.436-27.166,17.016
			c-29.646,0.789-52.37,1.101-82.017,1.289c-30.435,0.206-48.804,0-76.608-1.289c-21.053-0.985-23.078-5.937-22.813-18.821
			c0.196-9.332,11.42-10.454,42.185-17.701c8.684-2.031,31.173-4.604,54.176-5.105c33.344-0.745,58.954-0.868,74.096,1.529
			C231.094,244.101,257.669,254.828,259.53,265.639z"/>
	</g>
</g>
<g>
	<defs>
		<rect id="SVGID_1_" x="19.879" y="16.641" width="282.147" height="282.146"/>
	</defs>
	<clipPath id="SVGID_2_">
		<use xlink:href="#SVGID_1_"  overflow="visible"/>
	</clipPath>
	<g clip-path="url(#SVGID_2_)">
		<polygon fill-rule="evenodd" clip-rule="evenodd" fill="#FFFFFF" points="-147.493,545.792 586.515,545.792 586.515,-188.224 
			-147.493,-188.224 -147.493,545.792 		"/>
		<path fill="#222B83" d="M-147.493,172.611c0.963-0.418,2.061-0.893,3.318-1.396c58.628-23.448,117.258-46.911,175.896-70.352
			c14.129-5.657,17.084-4.066,30.109,10.519c34.14,38.23,68.266,76.461,102.401,114.688c8.595,9.636,6.084,8.853,12.654-3.049
			c39.103-70.97,78.215-141.953,117.33-212.918c12.68-23.03,12.286-24.75,35.463-5.705
			c66.957,55.059,133.924,110.113,200.88,165.167c8.862,7.287,6.024,6.754,15.47-0.267l40.486-30.105v14.888l-32.785,24.38
			c-19.076,14.181-14.309,13.859-30.741,0.34c-67.154-55.21-134.31-110.425-201.463-165.636
			c-12.282-10.105-9.178-11.177-16.676,2.421c-38.952,70.707-77.921,141.404-116.882,212.113
			c-14.709,26.691-11.624,29.867-30.765,8.428c-34.959-39.149-69.918-78.312-104.871-117.459
			c-8.709-9.755-5.816-10.849-17.183-6.303c-58.001,23.202-116.006,46.402-174.008,69.605c-3.343,1.328-6.187,2.447-8.635,3.308
			V172.611L-147.493,172.611z"/>
		<g>
			<path fill="#FFFFFF" d="M-147.493,75.79l85.701,147.482c6.012,10.35,3.525,8.729,15.238,4.546
				c118.174-42.196,236.353-84.408,354.537-126.612c31.316-11.189,26.568-14.376,33.454,18.126
				c12.134,57.281,24.273,114.584,36.413,171.886c2.306,10.909,1.184,9.497,7.353,0.183
				C452.304,190.054,519.408,89.063,586.515-12.537V8.988L395.665,297.26c-22.378,33.799-21.936,32.353-29.609-3.888
				c-12.176-57.527-24.35-115.052-36.533-172.572c-3.553-16.783-0.741-14.301-17.469-8.324
				C193.449,154.829,74.851,197.191-43.753,239.539c-17.787,6.363-20.087,4.012-28.78-10.952l-74.96-128.989V75.79L-147.493,75.79z"
				/>
			<path d="M587.157,9.178L396.19,297.614c-11.309,17.089-16.479,24.637-20.414,24.637c-4.266,0-5.995-8.179-9.771-26.115
				l-37.103-175.209c-0.42-1.938-0.738-3.629-1.012-5.07c-1.096-5.637-1.481-7.266-3.012-7.266c-1.105,0-2.961,0.74-5.772,1.861
				c-1.81,0.722-4.069,1.622-6.83,2.615L-43.544,240.144c-6.647,2.387-10.652,3.344-13.814,3.344c-6.938,0-10-4.732-15.721-14.579
				l-74.957-129.003l-0.086-0.14V73.446l86.87,149.517c0.613,1.037,1.131,1.958,1.586,2.77c2.061,3.644,2.701,4.69,3.886,4.69
				c0.863,0,2.163-0.529,4.132-1.319c1.283-0.517,2.879-1.16,4.884-1.872L307.76,100.616c3.901-1.396,7.203-2.647,10.103-3.757
				c6.75-2.555,10.821-4.108,13.73-4.108c5.23,0,6.141,4.644,8.56,17.036c0.545,2.739,1.161,5.86,1.902,9.413l36.413,171.893
				c0.209,1.021,0.391,1.934,0.566,2.747c0.395,1.985,0.763,3.742,1.035,4.317c0.396-0.393,1.135-1.578,1.902-2.835
				c0.701-1.147,1.576-2.579,2.713-4.271c24.37-36.828,48.773-73.612,73.146-110.396c42.013-63.358,85.438-128.871,128.166-193.545
				l1.16-1.75V9.178z M377.8,294.084c-0.173-0.795-0.357-1.71-0.568-2.733l-36.412-171.886c-0.736-3.56-1.358-6.692-1.898-9.434
				c-2.445-12.427-3.322-16.009-7.328-16.009c-2.679,0-6.895,1.596-13.272,4.021c-2.923,1.111-6.219,2.367-10.14,3.763
				L-46.337,228.419c-1.986,0.712-3.566,1.355-4.836,1.858c-2.184,0.875-3.503,1.414-4.606,1.414c-1.974,0-2.857-1.564-4.984-5.34
				c-0.454-0.801-0.974-1.722-1.58-2.759l-84.515-145.454v21.283l74.871,128.856c5.881,10.128,8.671,13.95,14.629,13.95
				c3.002,0,6.888-0.947,13.395-3.278l355.808-127.073c2.749-0.98,4.992-1.882,6.797-2.597c3.034-1.222,4.881-1.956,6.238-1.956
				c2.643,0,3.109,2.425,4.243,8.285c0.274,1.443,0.609,3.127,1.016,5.058l36.546,172.567l0.559,2.626
				c3.414,16.213,5.302,25.123,8.533,25.123c3.431,0,9.768-9.577,19.367-24.072L585.899,8.795v-19.231
				c-42.364,64.109-85.387,129.005-127.008,191.776c-24.385,36.784-48.774,73.57-73.172,110.405
				c-1.113,1.675-1.973,3.095-2.68,4.242c-1.586,2.577-2.182,3.539-3.034,3.539C378.909,299.526,378.64,298.267,377.8,294.084z"/>
		</g>
		
			<linearGradient id="SVGID_3_" gradientUnits="userSpaceOnUse" x1="-6053.3242" y1="2523.9092" x2="-6832.0063" y2="2527.6982" gradientTransform="matrix(1 0 0 -1 6663.9712 2758.7812)">
			<stop  offset="0" style="stop-color:#84CCEC"/>
			<stop  offset="0.2" style="stop-color:#9085B7"/>
			<stop  offset="0.4" style="stop-color:#ED9FBC"/>
			<stop  offset="0.6" style="stop-color:#EE9979"/>
			<stop  offset="0.8" style="stop-color:#FFF29B"/>
			<stop  offset="1" style="stop-color:#8FC496"/>
		</linearGradient>
		<path fill="url(#SVGID_3_)" d="M586.515,254.964C-263.353-44.505-203.798-81.146,320.613,398.85
			c-435.651-167.798-372.643-224.476-433.857-27.776c-13.069-17.811-24.319-33.924-34.249-48.426v33.61
			c64.49,76.296,55.471,54.313,104.38-80.699C643.403,534.653,433.21,470.991,37.13,95.324
			c236.966,76.281,416.928,143.332,549.385,194.368V254.964L586.515,254.964z"/>
		
			<linearGradient id="SVGID_4_" gradientUnits="userSpaceOnUse" x1="-6811.4644" y1="2628.1074" x2="-6077.4565" y2="2628.1074" gradientTransform="matrix(1 0 0 -1 6663.9712 2758.7812)">
			<stop  offset="0" style="stop-color:#84CCEC"/>
			<stop  offset="0.2" style="stop-color:#9085B7"/>
			<stop  offset="0.4" style="stop-color:#ED9FBC"/>
			<stop  offset="0.6" style="stop-color:#EE9979"/>
			<stop  offset="0.8" style="stop-color:#FFF29B"/>
			<stop  offset="1" style="stop-color:#8FC496"/>
		</linearGradient>
		<path fill="url(#SVGID_4_)" d="M-147.493,120.024C477.938-148.616,416.15-165.033-3.44,296.798
			C358.839,129.004,306.45,72.323,357.348,269.022c105.108-172.269,71.092-188.497,229.167-73.766v55.581
			c-38.364-24.35-82.87-53.855-134.663-89.161c-128.266,172.008-100.175,186.579-152.825,11.832
			C-271.895,432.601-97.086,368.942,232.304-6.733C77.855,53.055-47.455,107.171-147.493,152.359V120.024L-147.493,120.024z"/>
		<g>
			<path fill="#FFFFFF" d="M586.515,231.062C25.738,647.015,93.824,652.605,493.876-101.594
				C138.771,180.11,190.134,275.263,140.233-54.954C25.084,268.308,80.31,264.296-147.493-8.227v-82.264
				C-98.262-41.459-34.624,29.26,47.614,125.248c125.719-288.783,98.19-313.225,149.787-19.854
				c559.611-434.981,388.246-328.108,65.406,302.599c127.378-84.461,234.499-162.16,323.707-229.884V231.062L586.515,231.062z"/>
			<path d="M561.772-155.424c7.446,12.866-25.86,70.902-86.301,176.26c-53.584,93.391-126.908,221.137-211.01,385.295
				c110.354-73.213,215.588-147.989,321.683-228.525l1.013-0.767v54.545l-0.25,0.187c-62.734,46.529-117.061,87.524-164.998,123.678
				c-134.688,101.645-208.881,157.618-233.25,157.618c-3.729,0-6.385-1.303-7.91-3.888
				c-10.943-18.512,37.26-106.029,133.277-280.392c48.07-87.288,107.812-195.792,177.873-327.798
				C395.265-22.395,330.186,39.278,282.57,84.4c-47.952,45.435-74.359,70.47-91.443,70.47c-21.84,0-27.26-38.733-40.351-132.296
				c-3.083-22.032-6.571-46.911-10.791-74.943c-16.329,45.95-29.399,85.817-39.939,117.958
				c-28.625,87.305-41.694,127.165-64.619,127.165c-21.23,0-49.404-35.12-105.528-105.06
				c-21.001-26.177-47.134-58.743-77.875-95.521l-0.147-0.177v-84.004l1.073,1.071C-99.387-43.467-37.574,24.869,47.442,124.071
				C69.844,72.568,87.285,29.698,101.321-4.798c26.86-66.005,40.336-99.139,50.679-99.139c11.112,0,17.204,36.882,30.534,117.68
				c4.333,26.236,9.236,55.941,15.307,90.511c36.848-28.651,71.012-55.319,101.163-78.866
				C455.658-96.917,534.289-158.304,555.945-158.304C558.709-158.304,560.683-157.336,561.772-155.424z M196.778,105.507
				c-6.154-35.023-11.113-65.052-15.489-91.555C168.476-63.698,162.048-102.672,152-102.672c-9.49,0-23.701,34.932-49.505,98.354
				C88.369,30.382,70.799,73.582,48.193,125.5l-0.4,0.925l-0.659-0.765C-37.547,26.818-99.25-41.438-146.858-88.968V-8.46
				c30.685,36.722,56.772,69.224,77.745,95.364c55.872,69.638,83.917,104.578,104.542,104.578
				c22.011,0,35.851-42.204,63.422-126.287c10.718-32.701,24.059-73.396,40.793-120.362l1.215,0.115
				c4.394,29.063,7.994,54.77,11.169,77.456c12.609,90.083,18.364,131.203,39.099,131.203c16.577,0,42.854-24.91,90.567-70.12
				C329.719,37.97,395.488-24.361,493.479-102.086l0.95,0.79c-70.665,133.234-130.9,242.611-179.292,330.5
				C219.346,403.145,171.26,490.456,181.833,508.339c1.309,2.197,3.525,3.271,6.826,3.271c23.943,0,98.022-55.906,232.502-157.363
				c47.868-36.118,102.121-77.044,164.738-123.505v-51.36c-106.433,80.745-211.998,155.713-322.741,229.143l-2.015,1.332l1.1-2.146
				C346.814,242.476,420.54,114.011,474.372,20.207c58.238-101.496,93.391-162.766,86.311-175.002
				c-0.864-1.512-2.42-2.246-4.737-2.246c-21.214,0-99.741,61.3-256.155,183.427c-30.395,23.719-64.83,50.612-102.002,79.507
				l-0.834,0.641L196.778,105.507z"/>
		</g>
		
			<linearGradient id="SVGID_5_" gradientUnits="userSpaceOnUse" x1="-6066.8901" y1="2649.3711" x2="-6830.6611" y2="2668.3171" gradientTransform="matrix(1 0 0 -1 6663.9712 2758.7812)">
			<stop  offset="0" style="stop-color:#009FD7"/>
			<stop  offset="0.2" style="stop-color:#222B83"/>
			<stop  offset="0.4" style="stop-color:#E10079"/>
			<stop  offset="0.6" style="stop-color:#E21B25"/>
			<stop  offset="0.8" style="stop-color:#FFE800"/>
			<stop  offset="1" style="stop-color:#009040"/>
		</linearGradient>
		<path fill="url(#SVGID_5_)" d="M-147.493,135.185c2.479,2.048,4.891,4.042,7.425,6.119
			C109.076-231.041-35.49-161.099,407.419,253.396C495.184,144.028,549.632,62.554,586.515,12.237v71.324
			c-302.016,340-165.392,277.324-558.724-160.854C-85.077,131.494-89.974,206.613-147.493,171.787V135.185L-147.493,135.185z"/>
		
			<linearGradient id="SVGID_6_" gradientUnits="userSpaceOnUse" x1="-7129.6333" y1="2594.1328" x2="-6051.6025" y2="2614.9739" gradientTransform="matrix(1 0 0 -1 6663.9712 2758.7812)">
			<stop  offset="0" style="stop-color:#009FD7"/>
			<stop  offset="0.2" style="stop-color:#222B83"/>
			<stop  offset="0.4" style="stop-color:#E10079"/>
			<stop  offset="0.6" style="stop-color:#E21B25"/>
			<stop  offset="0.8" style="stop-color:#FFE800"/>
			<stop  offset="1" style="stop-color:#009040"/>
		</linearGradient>
		<path fill="url(#SVGID_6_)" d="M-147.493,6.848c37.19,65.378,92.156,186.536,198.951,363.596
			c312.268-693.147,160.076-699.697,515.491-73.789c6.762-12.09,13.247-23.797,19.566-35.307v40.955
			c-81.094,119.947-84.646-22.892-286.638-439.619c-300.359,716.277-187.75,783.811-447.37,262.201V6.848L-147.493,6.848z"/>
	</g>
	<path opacity="0.5" clip-path="url(#SVGID_2_)" fill="#FFFFFF" d="M265.968,157.718c0,58.003-47.015,105.011-105.016,105.011
		c-58.002,0-105.018-47.008-105.018-105.011c0-57.997,47.016-105.021,105.018-105.021
		C218.953,52.697,265.968,99.721,265.968,157.718z"/>
	<path clip-path="url(#SVGID_2_)" fill="#FFFFFF" d="M241.833,157.719c0,44.68-36.213,80.879-80.881,80.879
		c-44.672,0-80.884-36.199-80.884-80.879c0-44.668,36.212-80.888,80.884-80.888C205.62,76.831,241.833,113.051,241.833,157.719z"/>
</g>
<text transform="matrix(1 0 0 1 91.2773 165.5693)" font-family="'OpenSans-Bold'" font-size="34.8372">Artwork</text>
</svg>
