<?xml version="1.0" encoding="utf-8"?>
<!-- Generator: Adobe Illustrator 16.0.0, SVG Export Plug-In . SVG Version: 6.00 Build 0)  -->
<!DOCTYPE svg PUBLIC "-//W3C//DTD SVG 1.1//EN" "http://www.w3.org/Graphics/SVG/1.1/DTD/svg11.dtd">
<svg version="1.1" id="Layer_3" xmlns="http://www.w3.org/2000/svg" xmlns:xlink="http://www.w3.org/1999/xlink" x="0px" y="0px"
	 width="237.158px" height="195.536px" viewBox="0 0 237.158 195.536" enable-background="new 0 0 237.158 195.536"
	 xml:space="preserve">
<g>
	<g>
		<defs>
			<filter id="Adobe_OpacityMaskFilter" filterUnits="userSpaceOnUse" x="74.158" y="128.455" width="98.377" height="19.332">
				<feColorMatrix  type="matrix" values="1 0 0 0 0  0 1 0 0 0  0 0 1 0 0  0 0 0 1 0"/>
			</filter>
		</defs>
		<mask maskUnits="userSpaceOnUse" x="74.158" y="128.455" width="98.377" height="19.332" id="SVGID_1_">
			<g filter="url(#Adobe_OpacityMaskFilter)">
				
					<radialGradient id="SVGID_2_" cx="122.959" cy="45050.332" r="55.0787" gradientTransform="matrix(1 0 0 0.1547 0 -6834.6338)" gradientUnits="userSpaceOnUse">
					<stop  offset="0" style="stop-color:#FFFFFF"/>
					<stop  offset="1" style="stop-color:#000000"/>
				</radialGradient>
				<rect x="51.693" y="85.851" fill="url(#SVGID_2_)" width="158.025" height="96.054"/>
			</g>
		</mask>
		<ellipse mask="url(#SVGID_1_)" fill="#9C9E9F" cx="123.347" cy="138.121" rx="49.188" ry="9.666"/>
	</g>
	<g>
		<linearGradient id="SVGID_3_" gradientUnits="userSpaceOnUse" x1="6.6982" y1="43.4434" x2="227.2393" y2="43.4434">
			<stop  offset="0" style="stop-color:#1FA8C9"/>
			<stop  offset="0.0308" style="stop-color:#1DA6C7"/>
			<stop  offset="0.3408" style="stop-color:#099AB9"/>
			<stop  offset="0.6599" style="stop-color:#0093B1"/>
			<stop  offset="1" style="stop-color:#0091AF"/>
		</linearGradient>
		<path fill="url(#SVGID_3_)" d="M6.698,73.145c0,0,79.507-109.871,220.541-30.764C227.239,42.381,112.574-11.956,6.698,73.145z"/>
		<linearGradient id="SVGID_4_" gradientUnits="userSpaceOnUse" x1="84.7065" y1="78.4883" x2="168.9082" y2="78.4883">
			<stop  offset="0" style="stop-color:#1FA8C9"/>
			<stop  offset="0.0308" style="stop-color:#1DA6C7"/>
			<stop  offset="0.3408" style="stop-color:#099AB9"/>
			<stop  offset="0.6599" style="stop-color:#0093B1"/>
			<stop  offset="1" style="stop-color:#0091AF"/>
		</linearGradient>
		<path fill="url(#SVGID_4_)" d="M150.052,43.399c0.562,1.348,0.877,2.824,0.877,4.375c0,6.289-5.098,11.387-11.387,11.387
			c-6.288,0-11.386-5.098-11.386-11.387c0-4.77,2.938-8.842,7.1-10.537c-2.729-0.556-5.555-0.85-8.448-0.85
			c-23.252,0-42.101,18.849-42.101,42.101s18.849,42.101,42.101,42.101c23.251,0,42.101-18.849,42.101-42.101
			C168.908,63.833,161.411,50.939,150.052,43.399z M125.459,102.011c-10.095,0-18.279-8.184-18.279-18.278
			c0-10.095,8.184-18.279,18.279-18.279c10.095,0,18.278,8.184,18.278,18.279C143.737,93.827,135.554,102.011,125.459,102.011z"/>
	</g>
</g>
<text transform="matrix(1 0 0 1 50.3584 177.0576)" fill="#00B3E4" font-family="'OpenSans-Italic'" font-size="36">Portfolio</text>
</svg>
